<svg xmlns="http://www.w3.org/2000/svg" viewBox="0 0 3000 3000" style="enable-background:new 0 0 3000 3000" xml:space="preserve"><path style="fill:#f7df1e" d="M0 0h3000v3000H0z"/><path d="M2015.2 2343.8c60.4 98.7 139 171.2 278.1 171.2 116.8 0 191.4-58.4 191.4-139 0-96.7-76.7-130.9-205.2-187.1l-70.5-30.2c-203.4-86.7-338.6-195.2-338.6-424.8 0-211.4 161.1-372.4 412.9-372.4 179.2 0 308.1 62.4 401 225.7l-219.5 141c-48.3-86.7-100.5-120.8-181.4-120.8-82.6 0-134.9 52.4-134.9 120.8 0 84.6 52.4 118.8 173.3 171.2l70.5 30.2c239.5 102.7 374.8 207.4 374.8 442.9 0 253.8-199.4 392.9-467.1 392.9-261.8 0-431-124.8-513.7-288.3l228.9-133.3zm-995.8 24.4c44.3 78.6 84.6 145 181.4 145 92.6 0 151-36.2 151-177.1v-958.6h281.9v962.4c0 291.9-171.1 424.8-421 424.8-225.7 0-356.4-116.8-422.9-257.5l229.6-139z"/></svg>